<?xml version="1.0" encoding="UTF-8"?>
<svg xmlns="http://www.w3.org/2000/svg" xmlns:xlink="http://www.w3.org/1999/xlink" width="600" height="660">
<defs>
  <radialGradient id="rg" gradientUnits="userSpaceOnUse" cx="220" cy="220" r="405">
    <stop style="stop-color:#ffffff;stop-opacity:.3" offset="0"/>
    <stop style="stop-color:#ffffff;stop-opacity:.2" offset=".2"/>
    <stop style="stop-color:#666666;stop-opacity:.1" offset=".6"/>
    <stop style="stop-color:#000000;stop-opacity:.13" offset="1"/>
  </radialGradient>
  <path id="shield" d="m2,2v257c0,286 298,398 298,398c0,0 298-112 298-398V2z"/>
</defs>
<use id="bg" xlink:href="#shield" style="fill:#080808;"/>
<g id="kraken" style="fill:#ffcc00;stroke:#080808;stroke-width:3;stroke-linecap:round;stroke-linejoin:round;">
  <path id="right-tooth" style="fill:#ffffff;stroke:none;" d="m 311.07734,447.82987 c -3.64005,4.75745 -6.84307,6.59407 -11.4073,8.42352 4.12649,3.77223 5.87354,8.83056 1.51306,19.59412 11.26167,-7.18775 15.04859,-18.55498 9.89421,-28.01763 z" />
  <use id="left-tooth" xlink:href="#right-tooth" transform="translate(600)scale(-1,1)" />
  <path id="crown" d="m 347.90039,344.06055 c 5.97831,-8.7969 21.0055,-37.60707 30.92969,-47.53125 9.92418,-9.92419 23.10042,-7.38425 25.3457,-20.08985 2.24528,-12.7056 -14.31128,-25.31511 -5.91211,-42.50781 8.39917,-17.1927 23.37568,-18.73256 22.1836,-31.42773 -1.19209,-12.69517 -21.16011,-17.05435 -28.43946,-28.05664 -7.27935,-11.00229 7.23945,-28.12966 -3.35742,-46.86719 -10.59688,-18.73753 -27.80594,-1.35215 -52.94336,-15.86524 C 310.56961,97.201749 316.4079,69.550781 300,69.550781 c -16.4079,0 -10.56961,27.650968 -35.70703,42.164059 -25.13742,14.51309 -42.34648,-2.87229 -52.94336,15.86524 -10.59687,18.73753 3.92193,35.8649 -3.35742,46.86719 -7.27935,11.00229 -27.24737,15.36147 -28.43946,28.05664 -1.19208,12.69517 13.78443,14.23503 22.1836,31.42773 8.39917,17.1927 -8.15739,29.80221 -5.91211,42.50781 2.24528,12.7056 15.42152,10.16566 25.3457,20.08985 9.92419,9.92418 24.95138,38.73435 30.92969,47.53125" />
  <path id="right-arm-4" d="m 348.84153,343.48808 c -0.61159,20.35136 15.07934,26.68474 22.72876,39.96429 6.86819,11.92332 9.60519,27.65663 20.80101,35.65608 8.26779,5.90736 19.76842,6.921 29.88791,5.99944 14.14649,-1.28828 25.41384,-16.855 39.57936,-15.79622 4.92399,0.36804 12.83654,5.1793 12.78884,7.47503 -0.0504,2.42544 -8.74919,-1.06741 -12.86771,0.13145 -15.08652,4.39151 -24.65073,21.67236 -40.03013,24.89146 -12.70689,2.65971 -27.34529,0.98921 -38.54568,-5.57511 -14.85956,-8.70888 -20.31885,-27.85306 -31.44269,-41.00265 -4.20225,-4.9675 -5.47131,-10.34435 -13.30639,-14.28125" />
  <use id="left-arm-4" xlink:href="#right-arm-4" transform="translate(600)scale(-1,1)" />
  <path id="right-tentacle" d="m 455.33789,22.554688 c -1.62816,0.02098 -3.25198,0.07102 -4.86914,0.152343 -25.87446,1.301118 -51.3033,10.831372 -60.67187,33.523438 -9.24208,22.385607 -2.77529,43.369356 11.12695,60.429691 13.90224,17.06032 34.77871,31.68987 56.6875,46.41015 21.90878,14.72029 44.89513,29.43928 62.82226,45.35157 17.92713,15.91227 30.44827,32.6938 33.25977,51.46679 3.49252,23.32029 1.59111,59.38261 -7.04883,87.44922 -4.31997,14.0333 -10.35076,26.02633 -17.41992,33.55078 -7.06916,7.52445 -14.37479,10.84239 -24.34766,9.37305 -5.13552,-0.75664 -7.33861,-2.35717 -9.08398,-4.89258 -1.74537,-2.53541 -2.92919,-6.73197 -3.10156,-12.55078 -0.34475,-11.63762 3.426,-28.73724 7.66015,-46.67578 4.23416,-17.93854 8.86023,-36.80867 9.41016,-53.87696 0.54992,-17.06825 -3.56383,-33.81752 -18.125,-42.63085 -10.20512,-6.17678 -22.30309,-4.15921 -32.40039,0.52343 -10.0973,4.68265 -19.00367,12.17253 -24.61914,20.66602 -13.00644,19.67242 -15.95453,42.16973 -14.10742,65.0039 1.8471,22.83421 8.33713,46.33915 14.74023,69.53126 2.825,10.23218 5.57635,20.34133 7.96484,30.25781 4.57269,-2.78268 9.17092,-5.28698 14.06055,-6.08399 -2.37119,-9.43302 -4.99512,-18.85281 -7.56641,-28.16601 -6.39686,-23.16948 -12.56455,-45.93655 -14.24804,-66.74805 -1.68349,-20.8115 0.96489,-39.33292 11.66797,-55.52148 3.67766,-5.56252 11.00182,-11.89083 18.41797,-15.33008 7.41613,-3.43926 14.11385,-3.84916 18.32421,-1.30078 8.59782,5.20393 11.3699,14.68168 10.89844,29.31445 -0.47146,14.63277 -4.77399,32.93752 -9.01758,50.91602 -4.24358,17.97849 -8.4979,35.53677 -8.05273,50.56445 0.22258,7.51384 1.63603,14.65417 5.73828,20.61328 4.10225,5.95911 10.99668,10.01028 19.25195,11.22656 14.80445,2.18119 27.98224,-3.84599 37.4668,-13.9414 9.48456,-10.09542 16.07946,-23.995 20.82422,-39.40821 9.48951,-30.82641 11.47319,-67.86713 7.54687,-94.08398 -3.57312,-23.85852 -18.9045,-43.39222 -38.13672,-60.46289 -19.23219,-17.07067 -42.71108,-32.00198 -64.41406,-46.58399 -21.70298,-14.582 -41.58414,-28.90632 -53.42383,-43.43554 -11.83968,-14.529234 -16.1007,-27.771383 -8.89257,-45.230472 6.18294,-14.975945 24.8587,-23.123947 47.5625,-24.265625 22.70379,-1.141678 48.14956,5.228134 62.88086,15.478516 11.67124,8.121127 20.08258,17.872318 24.12695,30.554687 -5.38859,4.615766 -22.62521,-2.894404 -24.41584,3.788302 -1.88964,7.052256 15.36673,15.994372 21.7695,27.084302 6.5846,11.40486 4.11665,28.63382 6.15754,29.81213 2.74388,1.58418 5.72836,-1.72691 7.09231,-5.6613 8.14037,-23.4814 8.9067,-43.215618 3.6875,-59.582028 -5.21919,-16.366405 -16.27469,-28.861489 -29.85156,-38.308593 -16.37964,-11.397341 -39.56347,-17.739556 -62.4375,-18.275391 -1.63386,-0.03827 -3.26637,-0.04637 -4.89453,-0.02539 z M 371.96875,365.7168 c -4.50543,-0.0168 -9.08702,0.53651 -13.58398,1.88281 3.85001,4.38994 8.14892,8.3964 11.50195,13.2207 4.82736,-0.24113 9.92198,0.44362 14.75586,1.77344 6.5751,1.80884 11.82189,7.89513 15.5957,16.91992 3.77382,9.02479 5.64102,20.3823 5.86133,29.54883 0.20362,8.47214 -3.74046,18.09192 -10.32422,28.23047 3.91219,3.12163 8.24792,5.93324 11.9668,9.0918 7.76771,-11.70667 13.67742,-24.20498 13.35351,-37.68165 -0.25967,-10.80423 -2.24315,-23.55893 -7.01758,-34.97656 -4.7744,-11.41762 -12.77115,-22.10576 -25.45703,-25.5957 -5.19336,-1.42872 -10.85965,-2.39245 -16.65234,-2.41406 z m 87.31055,52.06054 c -4.94246,1.95915 -9.31444,5.24335 -13.57032,8.7793 6.50688,30.84242 7.93087,59.28982 -6.30273,82.35938 -7.7219,12.51551 -23.49175,28.3595 -39.23242,37.54882 -7.87034,4.59467 -15.7112,7.51008 -22.15235,8.08985 -6.44114,0.57976 -11.16245,-0.72733 -15.36523,-4.81641 -6.35725,-6.18527 -6.38195,-10.63954 -3.23633,-18.69336 3.14562,-8.05381 10.82665,-18.23596 19.8711,-29 6.03997,-7.18833 12.63355,-14.69696 18.79882,-22.48828 -3.93039,-3.00341 -9.29027,-4.35526 -14.11328,-6.39453 -5.20588,6.40562 -10.80365,12.84784 -16.16992,19.23437 -9.26297,11.0241 -17.89452,21.75993 -22.35937,33.19141 -4.46486,11.43148 -3.39742,25.02944 6.75,34.90234 7.49773,7.29489 17.52792,9.87179 27.16992,9.00391 9.64199,-0.86787 19.21689,-4.73118 28.36914,-10.07422 18.30449,-10.68607 35.01367,-27.35618 44.43555,-42.62695 18.32391,-29.69908 15.17018,-64.26203 7.10742,-99.01563 z" />
  <use id="left-tentacle" xlink:href="#right-tentacle" transform="translate(600)scale(-1,1)" />
  <path id="head" d="M 300 148.39648 C 269.46748 148.39648 236.01273 180.72414 225.02539 211.37695 C 210.3907 252.2053 229.7344 313.26095 243.26953 335.22461 C 248.47796 343.6764 241.0942 352.90957 241.36719 361.7793 C 241.68834 372.21361 248.5468 382.82709 245.52148 392.81836 C 242.0285 404.35408 227.61223 409.50245 221.64844 419.97656 C 216.67771 428.70658 217.51284 440.03008 212.33789 448.64062 C 205.32995 460.30108 187.57262 464.86927 183.97852 477.99023 C 180.81653 489.53371 189.44758 513.27268 192.28711 512.92188 C 196.13748 512.4462 192.87954 490.77925 199.06836 482.38867 C 204.61518 474.8685 216.9006 475.19466 223.41992 468.5 C 233.12391 458.53502 235.10922 443.08547 243.12305 431.7168 C 249.26927 422.99758 260.3489 420.86217 264.61328 408.00195 L 277.35938 437.46484 L 276.64258 447.11133 C 283.59696 448.46971 289.77715 460.29465 300 456.01562 C 310.22285 460.29465 316.40304 448.46971 323.35742 447.11133 L 322.64062 437.46484 L 335.38672 408.00195 C 339.6511 420.86217 350.73073 422.99758 356.87695 431.7168 C 364.89078 443.08547 366.87609 458.53502 376.58008 468.5 C 383.0994 475.19466 395.38482 474.8685 400.93164 482.38867 C 407.12046 490.77925 403.86252 512.4462 407.71289 512.92188 C 410.55242 513.27268 419.18347 489.53371 416.02148 477.99023 C 412.42738 464.86927 394.67005 460.30108 387.66211 448.64062 C 382.48716 440.03008 383.32229 428.70658 378.35156 419.97656 C 372.38777 409.50245 357.9715 404.35408 354.47852 392.81836 C 351.4532 382.82709 358.31166 372.21361 358.63281 361.7793 C 358.9058 352.90957 351.52204 343.6764 356.73047 335.22461 C 370.2656 313.26095 389.6093 252.2053 374.97461 211.37695 C 363.98727 180.72414 330.53252 148.39648 300 148.39648 z" />
  <path id="right-arm-2" d="m 315.94727,385.5918 c 2.38076,24.17731 -2.60016,30.29478 2.30468,44.21484 6.19692,17.587 26.74923,27.69733 32.75196,45.35156 4.25867,12.52492 -5.54092,28.81503 -0.49024,40.28321 4.65127,-7.76466 10.8146,-15.33485 17.29297,-23.04493 1.00981,-1.20179 2.0424,-2.41206 3.06445,-3.61718 1.96434,-9.26535 5.41427,-18.79682 3.16211,-27.62891 -4.50191,-17.65475 -22.8338,-29.16997 -29.07031,-46.28906 -3.56944,-9.79803 -7.38787,-22.10148 -4.30078,-30.98633 m 32.15039,126.10938 c -4.44527,5.64959 -8.24168,11.00819 -10.89648,15.83398 14.85045,7.6613 38.14422,10.42238 37.49414,6.92969 -1.11783,-6.00575 -19.75129,-12.6625 -26.59766,-22.76367 z" />
  <use id="left-arm-2" xlink:href="#right-arm-2" transform="translate(600)scale(-1,1)" />
  <path id="right-arm-1" d="m 325.13079,380.13056 c -2.9162,8.39297 -4.27064,24.1084 -2.88127,36.09967 2.58269,22.29038 20.23377,41.66538 20.55839,64.10253 0.27484,18.99679 -12.46048,36.05646 -15.82869,54.75429 -1.79948,9.98943 1.29573,28.0342 -2.2829,30.36497 -3.57863,2.33077 -12.90261,-17.86852 -14.2525,-28.3629 -2.25654,-17.54276 13.28368,-34.3527 11.05057,-51.89847 -2.1086,-16.5674 -18.6747,-28.54301 -22.37688,-44.82854 -4.09622,-18.01889 3.13145,-32.59002 0.88249,-55.42885" />
  <path id="left-arm-1" d="m 274.86921,380.13056 c 2.9162,8.39297 4.27064,24.1084 2.88127,36.09967 -2.58269,22.29038 -20.23377,41.66538 -20.55839,64.10253 -0.27484,18.99679 12.46048,36.05646 15.82869,54.75429 1.79948,9.98943 -1.29573,28.0342 2.2829,30.36497 3.57863,2.33077 12.90261,-17.86852 14.2525,-28.3629 2.25654,-17.54276 -13.28368,-34.3527 -11.05057,-51.89847 2.1086,-16.5674 18.6747,-28.54301 22.37688,-44.82854 4.09622,-18.01889 2.9728,-37.53941 -0.88249,-55.42885" />
  <g id="right-eye">
    <path style="fill:#080808;stroke:none;" d="m 333.19288,362.59648 c -2.64343,7.00219 -14.41951,16.71632 -8.21211,20.89803 9.71681,6.54588 22.92061,-12.77152 25.48732,-24.20292 1.67988,-7.4817 -0.64041,-21.53559 -8.30793,-21.45132 -8.77622,0.0965 -5.86747,16.54509 -8.96728,24.75621 z" />
    <path style="fill:#ffffff;stroke:none;" d="m 338.10122,365.43937 c -3.34247,5.40625 -9.51576,8.05621 -6.26766,10.53581 3.56515,2.72164 6.23985,-3.93307 9.34181,-9.68448 2.75703,-5.11191 6.30516,-15.01126 1.0683,-15.8987 -5.12926,-0.86921 -0.82735,9.68541 -4.14245,15.04737 z" />
  </g>
  <use id="left-eye" xlink:href="#right-eye" transform="translate(600)scale(-1,1)" />
</g>
<use id="shine" xlink:href="#shield" style="fill:url(#rg);stroke:#000000;stroke-width:3;"/>
</svg>
